<svg width="32" height="32" viewBox="0 0 32 32" fill="none" xmlns="http://www.w3.org/2000/svg">
<path d="M16.0029 15.6665C16.6454 15.6665 17.1944 15.4377 17.6499 14.9802C18.1055 14.5227 18.3333 13.9727 18.3333 13.3302C18.3333 12.6877 18.1045 12.1387 17.647 11.6832C17.1894 11.2276 16.6394 10.9998 15.997 10.9998C15.3545 10.9998 14.8055 11.2286 14.3499 11.6861C13.8944 12.1436 13.6666 12.6936 13.6666 13.3361C13.6666 13.9786 13.8954 14.5276 14.3529 14.9832C14.8104 15.4387 15.3604 15.6665 16.0029 15.6665ZM15.9999 26.6998C18.9555 24.0109 21.1388 21.5721 22.5499 19.3832C23.961 17.1943 24.6666 15.2665 24.6666 13.5998C24.6666 10.9823 23.83 8.839 22.1569 7.17C20.4837 5.501 18.4314 4.6665 15.9999 4.6665C13.5684 4.6665 11.5161 5.501 9.84299 7.17C8.16983 8.839 7.33325 10.9823 7.33325 13.5998C7.33325 15.2665 8.05547 17.1943 9.49992 19.3832C10.9444 21.5721 13.111 24.0109 15.9999 26.6998ZM15.9999 29.3332C12.4221 26.2887 9.74992 23.4609 7.98325 20.8498C6.21659 18.2387 5.33325 15.8221 5.33325 13.5998C5.33325 10.2665 6.40547 7.61095 8.54992 5.63317C10.6944 3.65539 13.1777 2.6665 15.9999 2.6665C18.8221 2.6665 21.3055 3.65539 23.4499 5.63317C25.5944 7.61095 26.6666 10.2665 26.6666 13.5998C26.6666 15.8221 25.7833 18.2387 24.0166 20.8498C22.2499 23.4609 19.5777 26.2887 15.9999 29.3332Z" fill="black"/>
</svg>
