<svg width="24" height="21" viewBox="0 0 24 21" fill="none" xmlns="http://www.w3.org/2000/svg">
<path fill-rule="evenodd" clip-rule="evenodd" d="M22.2076 14.6497C21.6537 14.3785 18.9264 13.0647 18.415 12.877C17.9037 12.6997 17.5308 12.6059 17.1686 13.1481C16.7957 13.6903 15.7304 14.9208 15.4108 15.2753C15.0912 15.6403 14.761 15.682 14.207 15.4109C13.653 15.1397 11.8632 14.5662 9.74323 12.7102C8.09197 11.2712 6.98402 9.48808 6.65377 8.94586C6.33417 8.40363 6.62181 8.11166 6.89879 7.84055C7.14382 7.60072 7.45277 7.20448 7.72976 6.89166C8.00674 6.57883 8.10262 6.34943 8.28373 5.98447C8.46483 5.61951 8.37961 5.30669 8.24111 5.03557C8.10262 4.76446 6.99467 2.08462 6.52593 1.00017C6.07849 -0.0634314 5.62039 0.0825534 5.27949 0.0721259C4.95989 0.0512711 4.58702 0.0512695 4.21416 0.0512695C3.84129 0.0512695 3.2447 0.186825 2.73334 0.729051C2.22198 1.27128 0.794434 2.58513 0.794434 5.26498C0.794434 7.94482 2.78661 10.5204 3.06359 10.8854C3.34058 11.2503 6.97337 16.7351 12.5451 19.0917C13.8661 19.6548 14.8995 19.9885 15.7091 20.2388C17.0408 20.6558 18.2446 20.5933 19.2034 20.4577C20.2687 20.3013 22.4846 19.1439 22.9534 17.8717C23.4115 16.5996 23.4115 15.5151 23.273 15.2857C23.1345 15.0563 22.7723 14.9208 22.2076 14.6497Z" fill="black"/>
</svg>
