<svg width="25" height="25" viewBox="0 0 25 25" fill="none" xmlns="http://www.w3.org/2000/svg">
<path fill-rule="evenodd" clip-rule="evenodd" d="M21.1904 3.57839C18.8762 1.27466 15.8044 0.00584705 12.5269 0C5.77232 0 0.280543 5.47284 0.27467 12.1911C0.27467 14.3428 0.838532 16.4361 1.90752 18.2896L0.168945 24.6102L6.6651 22.9146C8.45654 23.8852 10.4712 24.3997 12.521 24.3997H12.5269C19.2756 24.3997 24.7733 18.9269 24.7792 12.2028C24.7733 8.94598 23.5046 5.88213 21.1904 3.57839ZM12.5269 22.3416C10.6944 22.3416 8.90293 21.8504 7.34056 20.9266L6.97053 20.7044L3.11747 21.7101L4.14535 17.968L3.90453 17.5821C2.88253 15.9683 2.34804 14.1031 2.34804 12.1911C2.34804 6.60132 6.91767 2.05816 12.5328 2.05816C15.2523 2.05816 17.8072 3.11648 19.7338 5.02846C21.6544 6.94629 22.7117 9.48976 22.7117 12.1969C22.7058 17.7926 18.1362 22.3416 12.5269 22.3416ZM18.1068 14.7521C17.8014 14.6001 16.2977 13.8634 16.0158 13.7581C15.7339 13.6587 15.5283 13.6061 15.3286 13.9101C15.123 14.2142 14.5357 14.9041 14.3595 15.1029C14.1833 15.3076 14.0012 15.331 13.6958 15.1789C13.3903 15.0269 12.4036 14.7053 11.2347 13.6646C10.3243 12.8577 9.71348 11.8578 9.5314 11.5538C9.3552 11.2497 9.51378 11.086 9.66649 10.934C9.80159 10.7995 9.97192 10.5773 10.1246 10.4019C10.2773 10.2265 10.3302 10.0979 10.4301 9.89321C10.5299 9.68856 10.4829 9.51315 10.4066 9.36112C10.3302 9.2091 9.71936 7.70641 9.46092 7.09832C9.21423 6.50192 8.96167 6.58378 8.77371 6.57793C8.59751 6.56624 8.39193 6.56624 8.18636 6.56624C7.98078 6.56624 7.65186 6.64225 7.36993 6.94629C7.088 7.25034 6.30094 7.98707 6.30094 9.48976C6.30094 10.9925 7.3993 12.4367 7.55201 12.6413C7.70472 12.846 9.70761 15.9215 12.7795 17.2429C13.5078 17.5587 14.0775 17.7458 14.5239 17.8861C15.2581 18.12 15.9218 18.0849 16.4505 18.0089C17.0378 17.9212 18.2595 17.2722 18.518 16.5588C18.7705 15.8455 18.7705 15.2374 18.6942 15.1088C18.6178 14.9801 18.4181 14.9041 18.1068 14.7521Z" fill="black"/>
</svg>
