<svg width="122" height="123" viewBox="0 0 122 123" fill="none" xmlns="http://www.w3.org/2000/svg">
<path d="M7.46642 113.467C6.62462 113.467 5.95972 112.809 5.95972 111.967C5.95972 111.124 6.61852 110.466 7.46642 110.466H15.0426V11.1069C15.0426 10.2828 15.7929 9.53247 16.6225 9.53247H63.1106C63.9219 9.53247 64.5746 10.2397 64.5746 11.1069V110.472H102.584V38.3514H72.2667C71.4371 38.3514 70.76 37.681 70.76 36.8508C70.76 36.0205 71.4371 35.3502 72.2667 35.3502H103.962C104.755 35.3502 105.554 35.8053 105.554 36.6724V110.466H114.528C115.369 110.466 116.034 111.124 116.034 111.967C116.034 112.809 115.375 113.467 114.528 113.467H7.46642ZM44.7984 93.5722C45.5853 93.5722 46.421 94.0396 46.421 94.9129V110.472H61.61V12.5275H18.0133V110.466H35.0628V94.9068C35.0628 94.0581 35.5325 93.5661 36.3438 93.5661H44.7923L44.7984 93.5722ZM38.0396 110.472H43.4503V96.5673H38.0396V110.472Z" fill="white"/>
<path d="M43.3954 35.1226H39.0278V40.9343H43.3954V35.1226Z" fill="white"/>
<path d="M55.9675 35.1226H51.5999V40.9343H55.9675V35.1226Z" fill="white"/>
<path d="M30.3537 35.1226H25.9861V40.9343H30.3537V35.1226Z" fill="white"/>
<path d="M43.3954 22.9148H39.0278V28.7265H43.3954V22.9148Z" fill="white"/>
<path d="M55.9675 22.9148H51.5999V28.7265H55.9675V22.9148Z" fill="white"/>
<path d="M30.3537 22.9148H25.9861V28.7265H30.3537V22.9148Z" fill="white"/>
<path d="M43.3954 47.3242H39.0278V53.136H43.3954V47.3242Z" fill="white"/>
<path d="M55.9675 47.3242H51.5999V53.136H55.9675V47.3242Z" fill="white"/>
<path d="M30.3537 47.3242H25.9861V53.136H30.3537V47.3242Z" fill="white"/>
<path d="M92.7504 50.1409H87.9192V55.9526H92.7504V50.1409Z" fill="white"/>
<path d="M79.7148 50.1409H75.3472V55.9526H79.7148V50.1409Z" fill="white"/>
<path d="M92.7504 74.0891H87.9192V79.9009H92.7504V74.0891Z" fill="white"/>
<path d="M79.7148 74.0891H75.3472V79.9009H79.7148V74.0891Z" fill="white"/>
<path d="M92.7504 61.8813H87.9192V67.6931H92.7504V61.8813Z" fill="white"/>
<path d="M79.7148 61.8813H75.3472V67.6931H79.7148V61.8813Z" fill="white"/>
<path d="M92.7504 85.8232H87.9192V92.1024H92.7504V85.8232Z" fill="white"/>
<path d="M79.7148 85.8232H75.3472V92.1024H79.7148V85.8232Z" fill="white"/>
<path d="M43.3954 59.0647H39.0278V64.8764H43.3954V59.0647Z" fill="white"/>
<path d="M55.9675 59.0647H51.5999V64.8764H55.9675V59.0647Z" fill="white"/>
<path d="M30.3537 59.0647H25.9861V64.8764H30.3537V59.0647Z" fill="white"/>
<path d="M43.3954 83.0066H39.0278V89.2857H43.3954V83.0066Z" fill="white"/>
<path d="M55.9675 83.0066H51.5999V89.2857H55.9675V83.0066Z" fill="white"/>
<path d="M30.3537 83.0066H25.9861V89.2857H30.3537V83.0066Z" fill="white"/>
<path d="M43.3954 71.2725H39.0278V77.0842H43.3954V71.2725Z" fill="white"/>
<path d="M55.9675 71.2725H51.5999V77.0842H55.9675V71.2725Z" fill="white"/>
<path d="M30.3537 71.2725H25.9861V77.0842H30.3537V71.2725Z" fill="white"/>
</svg>
