<svg width="168" height="168" viewBox="0 0 168 168" fill="none" xmlns="http://www.w3.org/2000/svg">
<path d="M66.5198 86.2092L66.8642 73.92C67.1078 64.9824 100.599 64.9824 100.842 73.92L101.187 86.2512M125.202 98.0028L126.513 109.553C126.748 111.317 126.387 112.476 124.287 112.913M100.859 103.11L114.727 102.732C115.282 102.692 115.818 102.518 116.29 102.225C116.763 101.933 117.157 101.53 117.441 101.052L123.69 88.536C126.21 83.496 138.81 83.118 139.23 90.3168C139.566 95.9448 142.33 111.56 140.91 116.558C140.346 118.369 139.203 119.944 137.656 121.041C136.11 122.138 134.246 122.697 132.351 122.632H121.8M149.831 92.3412L147.504 111.233C146.773 116.76 142.985 122.447 136.467 122.581H132.636M121.153 106.361L127.193 118.961C127.815 120.792 127.193 122.489 124.782 122.539H42.9662C40.5218 122.489 39.9338 120.792 40.5638 118.961L46.595 106.361M117.457 98.742L111.426 86.142C111.223 85.7768 110.924 85.4738 110.561 85.2652C110.199 85.0566 109.786 84.9503 109.368 84.9576H58.3466C57.9242 84.9493 57.5077 85.0579 57.143 85.2713C56.7784 85.4848 56.4798 85.7948 56.2802 86.1672L50.2406 98.7672M42.8066 98.0112L41.5046 109.536C41.2694 111.3 41.6306 112.451 43.7306 112.896M67.2002 103.068L53.3318 102.682C52.7772 102.643 52.2404 102.469 51.7678 102.177C51.2951 101.884 50.9007 101.481 50.6186 101.002L44.369 88.494C41.849 83.454 29.249 83.076 28.829 90.2748C28.493 95.8944 25.7294 111.518 27.149 116.508C27.7131 118.318 28.8563 119.893 30.4028 120.991C31.9493 122.088 33.8135 122.647 35.7086 122.581H46.2002M18.1694 92.3412L20.4962 111.233C21.227 116.76 25.0154 122.447 31.5338 122.581H35.3642M91.6022 51.3576C91.241 47.4012 87.7466 45.4272 83.8574 45.4272C79.9682 45.4272 76.4402 47.4012 76.1042 51.3576C75.911 53.4156 76.373 58.296 77.381 60.144C78.5687 62.019 80.4501 63.3478 82.6142 63.84C83.4454 64.0126 84.3031 64.0126 85.1342 63.84C87.2939 63.3478 89.1718 62.0225 90.359 60.1524C91.3754 58.3044 91.829 53.4324 91.6358 51.366L91.6022 51.3576ZM119.473 71.4504C119.473 67.62 122.699 65.3268 126.462 64.89C130.225 64.4532 133.77 65.9484 134.451 69.6948C134.812 71.652 134.778 76.4148 133.955 78.2628C132.972 80.2049 131.274 81.6896 129.217 82.404C128.443 82.6539 127.626 82.7481 126.815 82.6812C125.768 82.5781 124.752 82.2636 123.829 81.7569C122.907 81.2501 122.096 80.5616 121.447 79.7328C120.313 78.0528 119.465 73.4496 119.473 71.4504ZM48.527 71.4C48.527 67.5696 45.3014 65.2764 41.5382 64.8396C37.775 64.4028 34.2302 65.8896 33.5498 69.6444C33.1886 71.5932 33.2222 76.3644 34.0454 78.204C35.0316 80.1455 36.7286 81.6318 38.783 82.3536C39.5577 82.6035 40.3742 82.6977 41.1854 82.6308C42.2321 82.5244 43.2467 82.2085 44.1688 81.702C45.0909 81.1955 45.9017 80.5087 46.553 79.6824C47.687 78.0612 48.5354 73.4328 48.527 71.4Z" stroke="white" stroke-width="4" stroke-linejoin="round"/>
</svg>
