<svg width="172" height="172" viewBox="0 0 172 172" fill="none" xmlns="http://www.w3.org/2000/svg">
<path d="M36.18 70.9759C37.7561 71.5938 39.1091 72.6731 40.062 74.0724C41.0148 75.4718 41.5232 77.1261 41.5206 78.8191C41.5549 79.4294 41.5144 80.0417 41.4002 80.6423C41.1936 81.8858 40.7251 83.0713 40.0259 84.1202C39.3267 85.1691 38.4127 86.0576 37.3444 86.7267C36.276 87.3958 35.0777 87.8304 33.8288 88.0017C32.5799 88.1729 31.3088 88.0769 30.0998 87.7201C28.7527 87.3472 27.5161 86.6533 26.4961 85.6976C25.476 84.742 24.703 83.5532 24.2432 82.2333C23.8271 81.0841 23.6519 79.8615 23.7284 78.6417C23.805 77.4218 24.1318 76.2308 24.6883 75.1427C25.2449 74.0545 26.0194 73.0925 26.9637 72.3165C27.908 71.5405 29.0018 70.967 30.1772 70.6319C30.292 70.5947 30.4101 70.5688 30.5298 70.5545C32.409 70.0777 34.3923 70.2256 36.18 70.9759Z" stroke="white" stroke-width="4" stroke-linejoin="round"/>
<path d="M32.6799 70.2792L28.6895 58.48L42.5355 58.781L48.6157 66.0222C49.7289 67.3474 51.1188 68.4129 52.6877 69.1439C54.2566 69.8748 55.9664 70.2535 57.6972 70.2534L115.171 70.3136C122.012 70.5638 128.593 72.9947 133.954 77.251C139.315 81.5074 143.175 87.3664 144.97 93.9722C144.986 94.0506 145.006 94.1281 145.03 94.2044C145.781 97.0395 146.174 99.9576 146.2 102.89C146.198 106.035 144.947 109.05 142.724 111.274C140.5 113.497 137.485 114.747 134.34 114.75H101.48C94.8557 114.743 88.4265 112.508 83.2271 108.403C78.0277 104.299 74.3606 98.5647 72.8161 92.1232C72.2633 89.992 71.1147 88.0626 69.5047 86.5608C67.8948 85.059 65.8902 84.0471 63.7259 83.6436L41.5637 79.1716" stroke="white" stroke-width="4" stroke-linejoin="round"/>
<path d="M109.719 70.2791H80.0747L83.0331 61.3867H106.752L109.719 70.2791Z" stroke="white" stroke-width="4" stroke-linejoin="round"/>
<path d="M94.8926 61.3868V51.5742" stroke="white" stroke-width="4" stroke-linejoin="round"/>
<path d="M130.47 49.5273H100.826" stroke="white" stroke-width="4" stroke-linejoin="round"/>
<path d="M88.9668 49.5273H59.314" stroke="white" stroke-width="4" stroke-linejoin="round"/>
<path d="M103.785 114.75V129.576" stroke="white" stroke-width="4" stroke-linejoin="round"/>
<path d="M133.438 114.75V129.576" stroke="white" stroke-width="4" stroke-linejoin="round"/>
<path d="M88.9668 129.576H134.736C139.576 129.569 144.215 127.642 147.636 124.218L148.229 123.634" stroke="white" stroke-width="4" stroke-linejoin="round"/>
<path d="M145.031 94.2302H127.392C124.156 94.2324 121.052 92.9504 118.76 90.6655C116.469 88.3806 115.178 85.2798 115.171 82.044V70.3394C122.012 70.5896 128.594 73.0204 133.955 77.2768C139.316 81.5332 143.176 87.3921 144.97 93.998C144.986 94.0764 145.007 94.1539 145.031 94.2302Z" stroke="white" stroke-width="4" stroke-linejoin="round"/>
<path d="M100.827 48.3579V51.6001H88.9672V48.3579C88.9368 47.5602 89.0677 46.7645 89.352 46.0186C89.6363 45.2727 90.0682 44.5918 90.6218 44.0167C91.1754 43.4415 91.8394 42.9841 92.574 42.6716C93.3085 42.3591 94.0986 42.198 94.8969 42.198C95.6952 42.198 96.4852 42.3591 97.2198 42.6716C97.9544 42.9841 98.6184 43.4415 99.172 44.0167C99.7256 44.5918 100.157 45.2727 100.442 46.0186C100.726 46.7645 100.857 47.5602 100.827 48.3579Z" stroke="white" stroke-width="4" stroke-linejoin="round"/>
</svg>
