<svg width="160" height="160" viewBox="0 0 160 160" fill="none" xmlns="http://www.w3.org/2000/svg">
<path d="M56.0562 85.5999H103.944M22.5762 68.9119L24.8722 87.5759C25.6002 93.0319 29.3362 98.6479 35.7762 98.7759H39.5602M72.7122 79.5759L57.2322 79.1999C56.6822 79.1565 56.151 78.9802 55.6842 78.6862C55.2173 78.3922 54.8289 77.9892 54.5522 77.5119L48.3762 65.1599C45.9042 60.1999 33.4562 59.8079 33.0322 66.9199C32.6962 72.4719 29.9682 87.8959 31.3762 92.8319C31.9352 94.6194 33.065 96.1741 34.5924 97.2579C36.1198 98.3416 37.9604 98.8946 39.8322 98.8319H50.2322C50.4373 98.82 50.6428 98.85 50.836 98.9201C51.0292 98.9902 51.206 99.0989 51.3558 99.2397C51.5055 99.3804 51.625 99.5502 51.7069 99.7387C51.7888 99.9272 51.8314 100.13 51.8322 100.336L53.3442 118.216M46.8882 74.5599L45.6002 85.9759C45.3682 87.7199 45.7202 88.8559 47.8002 89.2639L55.7202 91.7199C58.3202 92.4319 60.1922 94.2799 60.5202 97.7039L61.7442 118.216M137.456 68.9119L135.16 87.5759C134.432 93.0319 130.696 98.6479 124.256 98.7759H120.472M87.3202 79.5759L102.768 79.1999C103.318 79.1565 103.849 78.9802 104.316 78.6862C104.783 78.3922 105.171 77.9892 105.448 77.5119L111.624 65.1519C114.104 60.1919 126.544 59.7999 126.968 66.9119C127.304 72.4639 130.032 87.8879 128.624 92.8239C128.066 94.6121 126.937 96.1676 125.409 97.2515C123.881 98.3355 122.04 98.8879 120.168 98.8239H109.768C109.563 98.812 109.358 98.842 109.164 98.9121C108.971 98.9822 108.794 99.0909 108.645 99.2317C108.495 99.3724 108.375 99.5422 108.293 99.7307C108.212 99.9192 108.169 100.122 108.168 100.328L106.656 118.208M113.112 74.5519L114.4 85.9759C114.632 87.7199 114.28 88.8559 112.2 89.2639L104.28 91.7199C101.68 92.4319 99.8082 94.2799 99.4802 97.7039L98.2562 118.216M52.5282 48.3359C52.5282 44.5599 49.3282 42.2959 45.6242 41.8559C41.9202 41.4159 38.4242 42.8959 37.7362 46.5999C37.3762 48.5279 37.4082 53.2079 38.2242 55.0639C39.1892 56.997 40.8671 58.4799 42.9042 59.1999C43.6791 59.4446 44.4941 59.537 45.3042 59.4719C46.338 59.37 47.3404 59.0593 48.2507 58.5588C49.161 58.0583 49.9602 57.3783 50.6002 56.5599C51.7202 54.9199 52.5602 50.3519 52.5522 48.3759L52.5282 48.3359ZM107.504 48.3359C107.504 44.5599 110.704 42.2959 114.408 41.8559C118.112 41.4159 121.608 42.9039 122.304 46.5999C122.656 48.5279 122.624 53.2079 121.808 55.0639C120.836 57.0033 119.145 58.487 117.096 59.1999C116.321 59.4446 115.506 59.537 114.696 59.4719C113.662 59.37 112.66 59.0593 111.75 58.5588C110.839 58.0583 110.04 57.3783 109.4 56.5599C108.28 54.9199 107.44 50.3519 107.448 48.3759L107.504 48.3359Z" stroke="white" stroke-width="4" stroke-linejoin="round"/>
</svg>
