<svg width="160" height="160" viewBox="0 0 160 160" fill="none" xmlns="http://www.w3.org/2000/svg">
<path d="M43.5921 81.248C40.758 81.2417 38.0419 80.1125 36.0387 78.1078C34.0354 76.103 32.9083 73.3861 32.9041 70.552V63.712C32.9041 63.2877 33.0726 62.8807 33.3727 62.5807C33.6727 62.2806 34.0797 62.112 34.5041 62.112H52.6961C53.1204 62.112 53.5274 62.2806 53.8274 62.5807C54.1275 62.8807 54.2961 63.2877 54.2961 63.712V70.552C54.2918 73.3889 53.1625 76.1082 51.1558 78.1134C49.1491 80.1186 46.4289 81.2459 43.5921 81.248ZM36.0801 65.304V70.552C36.0801 72.5444 36.8715 74.4551 38.2803 75.8638C39.689 77.2726 41.5997 78.064 43.5921 78.064C45.5844 78.064 47.4951 77.2726 48.9038 75.8638C50.3126 74.4551 51.1041 72.5444 51.1041 70.552V65.304H36.0801Z" fill="white"/>
<path d="M61.8001 81.248C58.9646 81.2438 56.2465 80.1156 54.2415 78.1106C52.2365 76.1056 51.1083 73.3875 51.1041 70.552V63.712C51.1041 63.2877 51.2726 62.8807 51.5727 62.5807C51.8727 62.2806 52.2797 62.112 52.704 62.112H70.8961C71.3204 62.112 71.7274 62.2806 72.0274 62.5807C72.3275 62.8807 72.4961 63.2877 72.4961 63.712V70.648C72.5001 70.7093 72.5001 70.7708 72.4961 70.832C72.4071 73.6147 71.243 76.2545 69.2484 78.1969C67.2539 80.1393 64.5841 81.2329 61.8001 81.248ZM54.2881 65.304V70.552C54.252 72.5444 55.0088 74.4694 56.3921 75.9037C57.7754 77.3379 59.6717 78.164 61.6641 78.2C63.6564 78.2361 65.5814 77.4793 67.0157 76.096C68.4499 74.7127 69.276 72.8164 69.312 70.824C69.312 70.736 69.312 70.648 69.312 70.552V65.304H54.2881Z" fill="white"/>
<path d="M80 81.248C77.2195 81.233 74.5529 80.1413 72.56 78.2021C70.5672 76.263 69.403 73.6272 69.312 70.848V63.728C69.312 63.3037 69.4806 62.8967 69.7807 62.5967C70.0807 62.2966 70.4877 62.128 70.912 62.128H89.104C89.5284 62.128 89.9354 62.2966 90.2354 62.5967C90.5355 62.8967 90.704 63.3037 90.704 63.728V70.568C90.6956 73.4021 89.5644 76.1173 87.5581 78.1191C85.5519 80.1208 82.8341 81.2459 80 81.248ZM72.488 65.304V70.792C72.5199 72.7844 73.3418 74.6824 74.7731 76.0687C76.2044 77.455 78.1277 78.2159 80.12 78.184C82.1124 78.1522 84.0104 77.3303 85.3967 75.899C86.783 74.4677 87.5439 72.5444 87.512 70.552V65.304H72.488Z" fill="white"/>
<path d="M98.2 81.248C95.3653 81.2438 92.648 80.1153 90.6443 78.1101C88.6406 76.1049 87.5142 73.3868 87.512 70.552V63.712C87.512 63.2877 87.6806 62.8807 87.9807 62.5807C88.2807 62.2806 88.6877 62.112 89.112 62.112H107.32C107.744 62.112 108.151 62.2806 108.451 62.5807C108.751 62.8807 108.92 63.2877 108.92 63.712V70.552C108.919 71.9584 108.641 73.3507 108.101 74.6495C107.562 75.9483 106.772 77.1281 105.776 78.1214C104.781 79.1147 103.599 79.9021 102.299 80.4386C100.999 80.9751 99.6064 81.2501 98.2 81.248ZM90.688 65.304V70.552C90.688 71.5385 90.8823 72.5154 91.2599 73.4268C91.6374 74.3382 92.1907 75.1663 92.8883 75.8638C93.5858 76.5614 94.4139 77.1147 95.3253 77.4922C96.2367 77.8697 97.2136 78.064 98.2 78.064C99.1865 78.064 100.163 77.8697 101.075 77.4922C101.986 77.1147 102.814 76.5614 103.512 75.8638C104.209 75.1663 104.763 74.3382 105.14 73.4268C105.518 72.5154 105.712 71.5385 105.712 70.552V65.304H90.688Z" fill="white"/>
<path d="M116.408 81.248C113.573 81.2438 110.854 80.1156 108.85 78.1106C106.845 76.1056 105.716 73.3875 105.712 70.552V63.712C105.712 63.2877 105.881 62.8807 106.181 62.5807C106.481 62.2806 106.888 62.112 107.312 62.112H125.504C125.928 62.112 126.335 62.2806 126.635 62.5807C126.935 62.8807 127.104 63.2877 127.104 63.712V70.112C127.104 70.216 127.104 70.392 127.104 70.576C127.093 73.4073 125.962 76.1193 123.958 78.1191C121.954 80.1189 119.239 81.2438 116.408 81.248ZM108.888 65.304V70.552C108.952 72.503 109.771 74.3527 111.174 75.7103C112.577 77.0678 114.452 77.8268 116.404 77.8268C118.356 77.8268 120.231 77.0678 121.634 75.7103C123.037 74.3527 123.856 72.503 123.92 70.552C123.92 70.424 123.92 70.296 123.92 70.168V65.304H108.888Z" fill="white"/>
<path d="M52.6961 65.304H34.4961C34.2363 65.3025 33.9809 65.2377 33.7518 65.1153C33.5227 64.993 33.3268 64.8167 33.1811 64.6016C33.0354 64.3866 32.9443 64.1394 32.9155 63.8812C32.8867 63.6231 32.9212 63.3619 33.0161 63.12L44.3441 34.696C44.4634 34.4011 44.6679 34.1484 44.9315 33.9703C45.1951 33.7922 45.5059 33.6967 45.8241 33.696H59.4961C59.7355 33.6983 59.9714 33.7542 60.1863 33.8598C60.4013 33.9653 60.5898 34.1178 60.738 34.3059C60.8861 34.494 60.9902 34.7129 61.0425 34.9466C61.0948 35.1803 61.0939 35.4227 61.0401 35.656L54.2481 64.08C54.1638 64.4284 53.9651 64.7384 53.6837 64.9604C53.4022 65.1823 53.0545 65.3033 52.6961 65.304ZM36.8401 62.104H51.4401L57.4801 36.856H46.8961L36.8401 62.104Z" fill="white"/>
<path d="M70.8961 65.304H52.6961C52.4557 65.3029 52.2187 65.2477 52.0027 65.1424C51.7866 65.0372 51.5971 64.8846 51.448 64.696C51.3006 64.5072 51.1975 64.2877 51.1463 64.0537C51.0951 63.8197 51.097 63.5772 51.1521 63.344L57.9521 34.912C58.0375 34.5665 58.2357 34.2593 58.5153 34.039C58.795 33.8188 59.1401 33.6981 59.4961 33.696H73.168C73.3874 33.6968 73.6043 33.7426 73.8053 33.8306C74.0062 33.9187 74.1869 34.0472 74.336 34.208C74.4836 34.3691 74.5967 34.5586 74.6682 34.765C74.7398 34.9714 74.7683 35.1902 74.7521 35.408L72.48 63.84C72.4461 64.2377 72.2649 64.6082 71.9718 64.8791C71.6788 65.1499 71.2951 65.3015 70.8961 65.304ZM54.712 62.104H69.424L71.448 36.856H60.7521L54.712 62.104Z" fill="white"/>
<path d="M70.904 71.912C70.5073 71.9142 70.1238 71.7689 69.8282 71.5043C69.5325 71.2397 69.3457 70.8746 69.3041 70.48C69.296 70.3495 69.296 70.2186 69.3041 70.088V63.688C69.3001 63.6455 69.3001 63.6026 69.3041 63.56L71.5841 35.2C71.6182 34.7997 71.8017 34.4269 72.0982 34.1556C72.3946 33.8844 72.7823 33.7346 73.1841 33.736H86.848C87.2499 33.7346 87.6375 33.8844 87.9339 34.1556C88.2304 34.4269 88.4139 34.7997 88.4481 35.2L90.7121 63.624C90.7286 63.844 90.6995 64.0651 90.6265 64.2733C90.5535 64.4814 90.4383 64.6723 90.2881 64.8338C90.1378 64.9953 89.9558 65.1241 89.7534 65.2119C89.551 65.2997 89.3327 65.3447 89.1121 65.344H72.4881V70.368C72.4887 70.7776 72.3322 71.1718 72.051 71.4694C71.7697 71.7671 71.385 71.9455 70.9761 71.968L70.904 71.912ZM72.6161 62.12H87.3761L85.368 36.872H74.6321L72.6161 62.12Z" fill="white"/>
<path d="M107.304 65.304H89.096C88.6942 65.3055 88.3066 65.1557 88.0102 64.8845C87.7137 64.6132 87.5302 64.2404 87.496 63.84L85.232 35.408C85.2158 35.1902 85.2443 34.9714 85.3159 34.765C85.3874 34.5586 85.5005 34.3691 85.648 34.208C85.7972 34.0472 85.9779 33.9187 86.1788 33.8306C86.3798 33.7426 86.5967 33.6968 86.816 33.696H100.488C100.844 33.6981 101.189 33.8188 101.469 34.039C101.748 34.2593 101.947 34.5665 102.032 34.912L108.832 63.344C108.887 63.5772 108.889 63.8197 108.838 64.0537C108.787 64.2877 108.683 64.5072 108.536 64.696C108.389 64.8825 108.202 65.0338 107.989 65.139C107.776 65.2442 107.542 65.3006 107.304 65.304ZM90.568 62.104H105.288L99.248 36.856H88.552L90.568 62.104Z" fill="white"/>
<path d="M125.496 65.304H107.304C106.946 65.3033 106.598 65.1823 106.316 64.9604C106.035 64.7384 105.836 64.4284 105.752 64.08L98.96 35.656C98.9062 35.4227 98.9053 35.1803 98.9576 34.9466C99.0099 34.7129 99.114 34.494 99.2621 34.3059C99.4103 34.1178 99.5988 33.9653 99.8138 33.8598C100.029 33.7542 100.265 33.6983 100.504 33.696H114.168C114.486 33.6967 114.797 33.7922 115.061 33.9703C115.324 34.1484 115.529 34.4011 115.648 34.696L126.976 63.12C127.071 63.3619 127.105 63.6231 127.077 63.8812C127.048 64.1394 126.957 64.3866 126.811 64.6016C126.665 64.8167 126.469 64.993 126.24 65.1153C126.011 65.2377 125.756 65.3025 125.496 65.304ZM108.56 62.104H123.152L113.096 36.872H102.52L108.56 62.104Z" fill="white"/>
<path d="M70.904 72.384C70.5073 72.3862 70.1238 72.2409 69.8282 71.9763C69.5325 71.7117 69.3457 71.3466 69.304 70.952C69.2961 70.8188 69.2961 70.6853 69.304 70.552L69.3041 70.088C69.3041 69.6637 69.4726 69.2567 69.7727 68.9567C70.0727 68.6566 70.4797 68.488 70.904 68.488C71.3284 68.488 71.7354 68.6566 72.0354 68.9567C72.3355 69.2567 72.504 69.6637 72.504 70.088V70.792C72.5047 71.2016 72.3482 71.5958 72.067 71.8934C71.7857 72.1911 71.401 72.3695 70.992 72.392L70.904 72.384Z" fill="white"/>
<path d="M70.904 72.384C70.5073 72.3862 70.1238 72.2409 69.8282 71.9763C69.5325 71.7117 69.3457 71.3466 69.304 70.952C69.2961 70.8188 69.2961 70.6853 69.304 70.552C69.2962 70.4242 69.2962 70.2959 69.304 70.168C69.3253 69.7437 69.5142 69.3452 69.8293 69.0601C70.1443 68.7751 70.5597 68.6268 70.9841 68.648C71.4084 68.6693 71.8069 68.8582 72.092 69.1732C72.377 69.4883 72.5253 69.9037 72.504 70.328V70.792C72.5047 71.2016 72.3482 71.5958 72.067 71.8934C71.7857 72.1911 71.401 72.3695 70.992 72.392L70.904 72.384Z" fill="white"/>
<path d="M116.408 126.304H43.6081C43.1837 126.304 42.7767 126.135 42.4767 125.835C42.1766 125.535 42.008 125.128 42.008 124.704V79.656H45.208V123.128H114.808V79.656H118.008V124.712C118.006 125.135 117.836 125.54 117.537 125.838C117.237 126.137 116.831 126.304 116.408 126.304Z" fill="white"/>
<path d="M74.168 124.712H70.968V93.6H52.5681V124.72H49.368V92C49.368 91.5757 49.5366 91.1687 49.8367 90.8687C50.1367 90.5686 50.5437 90.4001 50.9681 90.4001H72.576C73.0004 90.4001 73.4074 90.5686 73.7074 90.8687C74.0075 91.1687 74.1761 91.5757 74.1761 92L74.168 124.712Z" fill="white"/>
<path d="M68.432 105.672H65.2561V111.048H68.432V105.672Z" fill="white"/>
<path d="M108.416 113.704H82.4C81.9757 113.704 81.5687 113.535 81.2687 113.235C80.9686 112.935 80.8 112.528 80.8 112.104V86.12C80.8 85.6957 80.9686 85.2887 81.2687 84.9887C81.5687 84.6886 81.9757 84.52 82.4 84.52H108.4C108.824 84.52 109.231 84.6886 109.531 84.9887C109.831 85.2887 110 85.6957 110 86.12V112.112C109.998 112.532 109.831 112.935 109.534 113.233C109.238 113.531 108.836 113.7 108.416 113.704ZM84.008 110.504H106.824V87.712H84L84.008 110.504Z" fill="white"/>
</svg>
