<svg width="168" height="168" viewBox="0 0 168 168" fill="none" xmlns="http://www.w3.org/2000/svg">
<path d="M139.776 95.1132C139.708 94.9322 139.605 94.7666 139.472 94.6259C139.339 94.4853 139.18 94.3726 139.003 94.2944C138.826 94.2162 138.636 94.174 138.443 94.1704C138.249 94.1667 138.057 94.2017 137.878 94.2732C136.539 94.897 135.077 95.2104 133.601 95.19C132.125 95.1697 130.672 94.8161 129.352 94.1556C132.031 92.5764 134.056 90.426 134.056 87.8472C134.056 83.2104 131.662 80.556 127.495 80.556C125.227 80.556 121.422 81.5052 121.422 87.8472C121.422 89.3256 122.262 91.434 123.875 93.3492C122.692 93.7325 121.473 93.9915 120.238 94.122C117.264 87.906 111.367 82.5972 103.53 79.1028L102.337 81.7656C109.897 85.1256 115.45 90.258 117.978 96.1968C118.958 98.4706 119.467 100.92 119.473 103.396C119.473 110.015 115.819 116.298 109.183 121.103C108.158 121.842 107.323 122.814 106.747 123.938C106.17 125.062 105.868 126.307 105.865 127.571V134.501C105.865 134.629 105.815 134.751 105.725 134.842C105.636 134.934 105.514 134.986 105.386 134.988H93.7187C93.5895 134.988 93.4656 134.937 93.3742 134.845C93.2829 134.754 93.2315 134.63 93.2315 134.501V129.755C93.2308 129.542 93.1838 129.332 93.0939 129.139C93.004 128.946 92.8732 128.775 92.7107 128.638C92.5479 128.5 92.3564 128.399 92.1501 128.344C91.9439 128.289 91.728 128.28 91.5179 128.318C85.2582 129.427 78.8524 129.427 72.5927 128.318C72.3827 128.281 72.1669 128.29 71.9607 128.345C71.7546 128.4 71.5631 128.5 71.3999 128.638C71.2374 128.775 71.1067 128.946 71.0168 129.139C70.9269 129.332 70.8799 129.542 70.8791 129.755V134.501C70.8791 134.63 70.8278 134.754 70.7364 134.845C70.6451 134.937 70.5212 134.988 70.3919 134.988H58.7327C58.6035 134.988 58.4796 134.937 58.3882 134.845C58.2969 134.754 58.2455 134.63 58.2455 134.501V127.579C58.2451 126.315 57.9449 125.069 57.3696 123.943C56.7943 122.817 55.9603 121.844 54.9359 121.103C52.8285 119.603 50.9326 117.825 49.2995 115.819C48.7459 115.124 48.0417 114.563 47.2401 114.179C46.4384 113.795 45.5601 113.597 44.6711 113.602H37.3463C37.2824 113.602 37.219 113.589 37.1599 113.565C37.1008 113.54 37.0471 113.504 37.0018 113.459C36.9566 113.414 36.9207 113.36 36.8962 113.301C36.8717 113.242 36.8591 113.178 36.8591 113.114V97.608C36.8591 97.4788 36.9105 97.3549 37.0018 97.2635C37.0932 97.1722 37.2171 97.1208 37.3463 97.1208H44.8139C45.1018 97.121 45.3832 97.0356 45.6225 96.8756C45.8618 96.7156 46.0481 96.4881 46.1579 96.222C47.1154 93.9677 48.4474 91.8916 50.0975 90.0816C50.2775 89.8807 50.3979 89.6336 50.4454 89.368C50.4929 89.1024 50.4655 88.8289 50.3663 88.578L45.1247 75.2472L46.4015 74.886C48.8754 74.1662 51.5002 74.1454 53.9852 74.8259C56.4701 75.5065 58.7181 76.8618 60.4799 78.7416C61.1769 79.4839 62.0704 80.0129 63.0563 80.2672C64.0422 80.5215 65.0801 80.4906 66.0491 80.178L65.1587 77.406C64.7122 77.5439 64.236 77.5548 63.7836 77.4376C63.3312 77.3204 62.9202 77.0798 62.5967 76.7424C60.4715 74.4789 57.7628 72.846 54.7689 72.0234C51.775 71.2008 48.6121 71.2205 45.6287 72.0804L42.8063 72.9204C42.6108 72.9756 42.4289 73.0711 42.2725 73.2009C42.1162 73.3306 41.9887 73.4917 41.8985 73.6738C41.8083 73.8559 41.7572 74.0548 41.7486 74.2578C41.7401 74.4609 41.7742 74.6634 41.8487 74.8524L47.3507 88.8636C45.9704 90.5022 44.8072 92.3119 43.8899 94.248H37.3463C36.452 94.2501 35.5942 94.6035 34.9579 95.232C34.3215 95.8605 33.9576 96.7138 33.9443 97.608V113.156C33.9554 114.051 34.3187 114.906 34.9555 115.535C35.5923 116.164 36.4513 116.517 37.3463 116.516H44.6711C45.1295 116.519 45.5812 116.626 45.9918 116.83C46.4023 117.034 46.7608 117.329 47.0399 117.692C48.8371 119.888 50.9191 121.835 53.2307 123.48C53.8825 123.948 54.413 124.565 54.7783 125.279C55.1436 125.994 55.333 126.785 55.3307 127.588V134.509C55.3307 135.404 55.6833 136.263 56.3123 136.9C56.9412 137.537 57.7958 137.9 58.6907 137.911H70.3919C71.2862 137.898 72.1395 137.534 72.768 136.898C73.3965 136.261 73.7498 135.404 73.7519 134.509V131.485C79.2313 132.274 84.7954 132.274 90.2747 131.485V134.509C90.2768 135.404 90.6302 136.261 91.2587 136.898C91.8871 137.534 92.7405 137.898 93.6347 137.911H105.302C106.197 137.898 107.05 137.534 107.678 136.898C108.307 136.261 108.66 135.404 108.662 134.509V127.579C108.675 126.768 108.883 125.972 109.269 125.258C109.655 124.544 110.208 123.934 110.88 123.48C118.297 118.121 122.38 110.989 122.38 103.412C122.378 101.213 122.032 99.0282 121.355 96.936C123.024 96.6859 124.661 96.2521 126.235 95.6424C126.42 95.7852 126.605 95.9112 126.798 96.0372C128.777 97.3926 131.119 98.1213 133.518 98.1288C135.387 98.1056 137.233 97.7176 138.953 96.9864C139.13 96.9177 139.292 96.8147 139.429 96.6833C139.567 96.5519 139.677 96.3947 139.753 96.2207C139.83 96.0467 139.871 95.8593 139.875 95.6692C139.879 95.4792 139.845 95.2903 139.776 95.1132ZM126.756 92.2488C125.143 90.5688 124.337 88.7208 124.337 87.8892C124.337 84.0336 125.933 83.5128 127.495 83.5128C129.293 83.5128 131.141 84.0336 131.141 87.8892C131.141 89.4684 129.209 91.056 126.756 92.2488Z" fill="white"/>
<path d="M56.784 99.5567C58.9319 99.5567 60.6732 97.8155 60.6732 95.6675C60.6732 93.5196 58.9319 91.7783 56.784 91.7783C54.636 91.7783 52.8948 93.5196 52.8948 95.6675C52.8948 97.8155 54.636 99.5567 56.784 99.5567Z" fill="white"/>
<path d="M37.4975 51.0637L46.8803 59.094C49.1589 61.0629 52.0673 62.1506 55.0787 62.16C59.6272 62.1604 64.0405 63.7065 67.5947 66.5448L67.9223 66.8052C67.3025 68.5907 66.9873 70.4677 66.9899 72.3577C67.014 76.1232 68.2676 79.7777 70.5599 82.7653C68.972 83.2951 67.4155 83.9149 65.8979 84.6217C65.5653 84.7964 65.3129 85.0925 65.1928 85.4486C65.0728 85.8046 65.0945 86.1931 65.2534 86.5336C65.4123 86.874 65.6961 87.1402 66.0461 87.2769C66.396 87.4136 66.7851 87.4103 67.1327 87.2677C69.1517 86.32 71.2481 85.5472 73.3991 84.9576C73.5134 84.9358 73.6257 84.9049 73.7351 84.8652C80.4649 83.0594 87.5517 83.0594 94.2815 84.8652C94.3909 84.9049 94.5033 84.9358 94.6175 84.9576C96.768 85.5486 98.8644 86.3214 100.884 87.2677C101.079 87.357 101.291 87.4029 101.506 87.4021C101.836 87.3983 102.155 87.2829 102.411 87.0747C102.667 86.8665 102.845 86.5777 102.916 86.2553C102.987 85.933 102.947 85.5961 102.802 85.2994C102.658 85.0028 102.417 84.7639 102.119 84.6217C100.596 83.9143 99.0336 83.2945 97.4399 82.7653C98.2718 81.6912 98.9659 80.5173 99.5063 79.2709C101.036 75.8813 101.405 72.0819 100.556 68.4615C99.7067 64.841 97.6875 61.6016 94.8107 59.2452L91.9883 49.3332C91.4192 47.3472 90.3557 45.538 88.8971 44.0749L77.6159 32.76C76.7513 31.8924 75.7235 31.2045 74.5918 30.736C73.4601 30.2674 72.2468 30.0275 71.0219 30.03H29.5679C29.2005 30.058 28.8572 30.2236 28.6067 30.4939C28.3562 30.7641 28.217 31.119 28.217 31.4874C28.217 31.8559 28.3562 32.2108 28.6067 32.481C28.8572 32.7513 29.2005 32.9169 29.5679 32.9449H71.0219C71.8636 32.9432 72.6972 33.1087 73.4744 33.4317C74.2516 33.7547 74.9569 34.2288 75.5495 34.8264L86.8391 46.1076C87.9504 47.2188 88.7599 48.5949 89.1911 50.1061L91.1147 56.8764L90.8963 56.7673C88.7253 55.805 86.3746 55.3154 83.9999 55.3309H83.6639L80.4383 49.9549C80.0115 49.2477 79.4424 48.6368 78.7671 48.1611C78.0918 47.6854 77.3251 47.3551 76.5155 47.1912L68.7371 45.6373C68.4693 45.5812 68.191 45.6028 67.9351 45.6995C67.6791 45.7963 67.4561 45.9641 67.2923 46.1832C67.127 46.4002 67.0252 46.6589 66.9985 46.9304C66.9718 47.2019 67.0212 47.4754 67.1411 47.7204L72.9791 59.3797C73.128 59.6896 73.3848 59.9345 73.7015 60.0685L74.5919 60.48C74.8107 60.6659 75.0796 60.7828 75.3647 60.8161L81.2447 63.3361C81.8448 63.5938 82.3858 63.9718 82.8341 64.4468C83.2824 64.9217 83.6287 65.4836 83.8514 66.0975C84.0742 66.7115 84.1688 67.3646 84.1293 68.0166C84.0898 68.6685 83.9171 69.3054 83.6219 69.888C83.5789 69.9905 83.5159 70.0834 83.4367 70.1614C83.3575 70.2393 83.2636 70.3008 83.1605 70.3422C83.0574 70.3836 82.947 70.4041 82.8359 70.4026C82.7248 70.4011 82.6151 70.3775 82.5131 70.3333L74.6927 67.7292C73.6134 67.3692 72.6065 66.8202 71.7191 66.108L70.6523 65.268L70.5599 65.1421L69.4427 64.2433C65.3724 60.9869 60.3166 59.2098 55.1039 59.2033C52.7913 59.2029 50.5545 58.3779 48.7955 56.8764L39.3959 48.8461C38.4192 48.0121 37.1774 47.5535 35.8931 47.5525H29.5679C29.2005 47.5804 28.8572 47.746 28.6067 48.0163C28.3562 48.2865 28.217 48.6414 28.217 49.0098C28.217 49.3783 28.3562 49.7332 28.6067 50.0034C28.8572 50.2737 29.2005 50.4393 29.5679 50.4673H35.8931C36.4823 50.4662 37.0521 50.678 37.4975 51.0637ZM71.0975 49.0812L75.9443 50.0473C76.3577 50.1297 76.7491 50.2979 77.0935 50.5409C77.4378 50.784 77.7274 51.0966 77.9435 51.4584L80.4635 55.7004C78.6863 56.0634 76.9826 56.7221 75.4235 57.6492L75.3143 57.5989L71.0975 49.0812ZM73.7687 70.4592L81.5639 73.0801C81.9606 73.2196 82.3782 73.2906 82.7987 73.2901C83.509 73.2897 84.2051 73.0915 84.809 72.7176C85.4129 72.3437 85.9006 71.8089 86.2175 71.1733C86.6889 70.235 86.9634 69.2104 87.0243 68.1622C87.0852 67.114 86.9312 66.0644 86.5717 65.0779C86.2122 64.0914 85.6548 63.1888 84.9337 62.4256C84.2127 61.6624 83.3432 61.0546 82.3787 60.6397L79.0187 59.1949C79.8791 58.863 80.7714 58.6209 81.6815 58.4725C82.0866 58.3957 82.4963 58.3452 82.9079 58.3212H83.0423C85.3288 58.1144 87.6293 58.5143 89.7119 59.4804C90.7717 59.9446 91.7659 60.5461 92.6687 61.2697C95.1628 63.196 96.9341 65.9073 97.6963 68.9651C98.4585 72.023 98.1669 75.2485 96.8687 78.1201C96.2646 79.5103 95.4296 80.7883 94.3991 81.9001C87.5825 80.1948 80.4509 80.1948 73.6343 81.9001C72.3834 80.5469 71.4178 78.9556 70.7951 77.2213C70.2188 75.6654 69.934 74.0167 69.9551 72.3577C69.9536 71.1383 70.1117 69.924 70.4255 68.7456C71.4454 69.48 72.5695 70.0576 73.7603 70.4592H73.7687Z" fill="white"/>
</svg>
