<svg width="122" height="123" viewBox="0 0 122 123" fill="none" xmlns="http://www.w3.org/2000/svg">
<path d="M31.5004 108.461C29.3349 108.461 27.3646 107.631 25.8091 106.063C24.2963 104.538 23.2227 102.379 22.7042 99.8268L14.2313 58.1728H12.1695C10.9678 58.1728 9.82705 57.7054 8.95475 56.8506L8.90595 56.8075C8.02755 55.9219 7.54565 54.7534 7.54565 53.5173V49.12C7.54565 47.8839 8.02755 46.7215 8.89985 45.8359C9.77825 44.9503 10.9373 44.4645 12.1634 44.4645H54.1924V19.1941C54.1924 17.958 54.6743 16.7895 55.5466 15.91C56.425 15.0244 57.584 14.5386 58.8101 14.5386H63.1716C64.3977 14.5386 65.5567 15.0244 66.4351 15.9039C67.3074 16.7833 67.7893 17.9518 67.7893 19.1941V44.4645H109.818C111.05 44.4645 112.209 44.9503 113.082 45.8298C113.106 45.8544 113.131 45.879 113.155 45.9097C113.991 46.8015 114.436 47.9331 114.436 49.12V53.5173C114.436 54.7596 113.954 55.9281 113.082 56.8075C112.209 57.687 111.05 58.1728 109.818 58.1728H107.756L107.659 58.6648C106.884 62.4963 106.116 66.3339 105.347 70.1776L105.329 70.2514C103.377 80.0053 101.364 90.0606 99.2653 99.9006C98.5821 102.508 97.4597 104.667 96.0201 106.124C94.4829 107.674 92.6224 108.455 90.4874 108.455H31.5004V108.461ZM25.3333 99.2917C25.7359 101.284 26.5838 103.006 27.7123 104.144C28.7676 105.208 30.0364 105.743 31.5004 105.743H90.4996C91.8965 105.743 93.1165 105.226 94.1291 104.206C95.2332 103.092 96.1116 101.377 96.6728 99.2425L105.024 58.1728H16.9763L25.3394 99.2856L25.3333 99.2917ZM67.7954 53.5234C67.7954 53.9232 67.7466 54.3168 67.649 54.6919L67.4477 55.4607H109.83C110.343 55.4607 110.825 55.2577 111.191 54.8887C111.557 54.5197 111.758 54.0339 111.758 53.5173V49.12C111.758 48.628 111.575 48.1668 111.252 47.8039L111.227 47.7793L111.197 47.7547C110.831 47.3857 110.343 47.1828 109.837 47.1828H67.8076V53.5234H67.7954ZM58.8162 17.2569C58.3038 17.2569 57.8219 17.4598 57.4559 17.8227C57.0899 18.1917 56.8947 18.6775 56.8947 19.1941V53.5234C56.8947 54.04 57.096 54.5259 57.462 54.8949C57.828 55.2639 58.3099 55.4668 58.8223 55.4668H63.1838C63.6962 55.4668 64.1781 55.2639 64.5441 54.901C64.9101 54.532 65.1053 54.0462 65.1053 53.5296V19.1941C65.1053 18.6837 64.904 18.1978 64.538 17.8288C64.172 17.4598 63.6901 17.2569 63.1838 17.2569H58.8223H58.8162ZM12.1695 47.1828C11.6571 47.1828 11.1752 47.3857 10.8092 47.7486C10.4432 48.1176 10.2419 48.6034 10.2419 49.12V53.5173C10.2419 54.0339 10.4432 54.5197 10.8092 54.8887L10.8702 54.9502C11.2362 55.2823 11.6876 55.4545 12.1634 55.4545H54.5401L54.3388 54.6858C54.2412 54.3106 54.1924 53.917 54.1924 53.5173V47.1766H12.1695V47.1828Z" fill="white"/>
<path d="M83.5761 95.8784C83.1369 95.8784 82.716 95.7185 82.3927 95.4172L82.3195 95.3557C81.9901 95.0236 81.8071 94.5746 81.8071 94.0949V69.8332C81.8071 69.3535 81.9901 68.9045 82.3195 68.5724C82.3378 68.554 82.3561 68.5417 82.3683 68.5232C82.7038 68.2219 83.1247 68.0681 83.5761 68.0681C84.0275 68.0681 84.4484 68.2219 84.7595 68.5048L84.8327 68.5724C85.1621 68.9045 85.3451 69.3535 85.3451 69.8332V94.0949C85.3451 94.5746 85.1621 95.0236 84.8327 95.3557C84.8205 95.368 84.8022 95.3864 84.7839 95.3987C84.4301 95.7185 84.0092 95.8784 83.57 95.8784H83.5761Z" fill="white"/>
<path d="M68.5273 95.8784C68.0881 95.8784 67.6672 95.7185 67.3439 95.4172L67.2707 95.3557C66.9413 95.0236 66.7583 94.5746 66.7583 94.0949V69.8332C66.7583 69.3535 66.9413 68.9045 67.2707 68.5724C67.289 68.554 67.3073 68.5417 67.3195 68.5232C67.655 68.2219 68.0698 68.0681 68.5273 68.0681C69.0092 68.0681 69.4667 68.2465 69.7839 68.5663C70.1194 68.9045 70.3024 69.3535 70.3024 69.8332V94.0949C70.3024 94.5746 70.1194 95.0236 69.79 95.3557C69.4545 95.6939 69.0092 95.8784 68.5334 95.8784H68.5273Z" fill="white"/>
<path d="M53.4726 95.8785C53.0334 95.8785 52.6125 95.7186 52.2892 95.4234C52.2465 95.3926 52.2343 95.3742 52.216 95.3619C51.8805 95.0236 51.6975 94.5747 51.6975 94.095V69.8332C51.6975 69.3535 51.8805 68.9046 52.2099 68.5725C52.2282 68.554 52.2465 68.5417 52.2587 68.5233C52.5942 68.2219 53.0151 68.062 53.4665 68.062C53.9179 68.062 54.3388 68.2158 54.6499 68.4987L54.7231 68.5663C55.0525 68.8984 55.2355 69.3474 55.2355 69.8271V94.0888C55.2355 94.5685 55.0525 95.0175 54.7231 95.3496C54.7109 95.3619 54.6926 95.3803 54.6743 95.3926C54.3205 95.7124 53.8996 95.8723 53.4604 95.8723L53.4726 95.8785Z" fill="white"/>
<path d="M38.424 95.8785C37.9848 95.8785 37.5639 95.7186 37.2406 95.4172C37.1979 95.3803 37.1857 95.368 37.1674 95.3557C36.8319 95.0175 36.6489 94.5685 36.6489 94.0888V69.8271C36.6489 69.3474 36.8319 68.8984 37.1613 68.5663C37.1796 68.5479 37.1918 68.5356 37.2101 68.5233C37.5456 68.2158 37.9665 68.062 38.4179 68.062C38.8693 68.062 39.2902 68.2158 39.6013 68.4987L39.6745 68.5663C40.0039 68.8984 40.1869 69.3474 40.1869 69.8271V94.0888C40.1869 94.5685 40.0039 95.0175 39.6745 95.3496C39.6623 95.3619 39.644 95.3803 39.6257 95.3926C39.278 95.7124 38.8571 95.8723 38.4179 95.8723L38.424 95.8785Z" fill="white"/>
</svg>
