<svg width="122" height="123" viewBox="0 0 122 123" fill="none" xmlns="http://www.w3.org/2000/svg">
<path d="M32.2019 57.7301C32.147 57.7301 32.0982 57.7301 32.0433 57.7178C31.7017 57.6747 31.4089 57.5025 31.1954 57.2319C30.988 56.9613 30.8965 56.6292 30.9392 56.291C32.4398 44.2247 39.0156 35.0304 49.4588 30.4056C49.6235 30.3318 49.7943 30.2949 49.9712 30.2949C50.1298 30.2949 50.2823 30.3257 50.4287 30.381C50.7459 30.504 50.996 30.7439 51.1302 31.0575C51.4108 31.7033 51.118 32.4597 50.4775 32.7426C40.8822 36.9923 34.8371 45.467 33.4524 56.6046C33.3731 57.2442 32.8302 57.7239 32.1958 57.7239L32.2019 57.7301Z" fill="white"/>
<path d="M61.0122 19.0403C57.2729 19.0403 54.6499 12.9703 54.6499 9.68005C54.6499 7.57675 57.0899 6.27295 61.0122 6.27295C64.9345 6.27295 67.3745 7.57675 67.3745 9.68005C67.3745 12.9703 64.7515 19.0403 61.0122 19.0403ZM61.0122 8.83135C59.3103 8.83135 58.0903 9.16345 57.523 9.47095L57.1753 9.65545L57.1997 10.049C57.3705 12.7058 59.3713 16.4819 61.0122 16.4819C62.6531 16.4819 64.6539 12.7058 64.8247 10.049L64.8491 9.65545L64.5014 9.47095C63.928 9.16345 62.7141 8.83135 61.0122 8.83135Z" fill="white"/>
<path d="M91.5306 116.721C90.8291 116.721 90.2618 116.149 90.2618 115.442V111.518H85.1988C84.4973 111.518 83.93 110.946 83.93 110.239V108.947L83.4176 108.867C82.9357 108.787 82.4355 108.695 81.8926 108.578C80.209 108.216 77.4823 107.502 74.0358 106.174C69.4181 104.403 65.1908 102.121 61.4698 99.3903C59.0176 97.5945 56.9314 95.5096 55.382 93.8922C54.3206 92.7852 53.2592 91.6044 52.3198 90.565C50.258 88.2834 48.1352 85.9341 45.7928 83.9169C43.4199 81.8751 40.5773 79.821 37.1186 77.6439C35.5387 76.6537 34.9104 74.9563 35.5448 73.4311C35.7888 72.8407 36.2585 72.2934 36.8502 71.8875L38.5277 70.762H22.1553C22.0455 70.762 21.9357 70.7497 21.8259 70.719C20.7828 70.4361 19.5445 69.286 18.416 67.564C18.05 67.0105 17.3973 65.9097 17.0679 64.8088L16.9398 64.3722H14.512C13.8105 64.3722 13.2432 63.8002 13.2432 63.093C13.2432 62.3857 13.8105 61.8138 14.512 61.8138H18.3794L18.4892 61.8261C18.4892 61.8261 18.5868 61.8199 18.6173 61.8138H21.1122L21.1366 61.2234C21.588 51.1927 25.7238 41.7525 32.7815 34.6369C40.3211 27.0355 50.3434 22.8535 61.0062 22.8535C71.669 22.8535 81.6913 27.0417 89.2309 34.6369C96.2886 41.7525 100.424 51.1927 100.876 61.2234L100.9 61.8076H103.395L103.529 61.8199C103.529 61.8199 103.627 61.8138 103.657 61.8076H107.506C108.208 61.8076 108.775 62.3796 108.775 63.0868C108.775 63.7941 108.208 64.366 107.506 64.366H105.085L104.957 64.8088C104.731 65.5899 104.304 66.5185 103.712 67.4964C102.657 69.243 101.583 70.3746 100.687 70.6821C100.552 70.7313 100.418 70.7497 100.278 70.7497H80.1907L82.1793 71.8998C82.4477 72.0535 82.6795 72.2196 82.8747 72.3918C83.6494 73.0806 84.0703 74.0092 84.0581 75.0055C84.0337 77.0781 82.5087 78.1789 81.2765 79.0584C80.9044 79.329 80.5628 79.5688 80.3066 79.8087C78.4583 81.5245 79.355 84.372 80.5262 87.3793C80.8434 88.2034 81.2033 89.1198 81.6303 89.9439C82.0451 90.7495 82.466 91.3645 82.9174 91.8319L83.7592 92.6991L83.9544 91.4998C84.0581 90.8787 84.5827 90.4297 85.1988 90.4297H90.2618V88.6462C90.2618 87.939 90.8291 87.367 91.5306 87.367H103.371C104.072 87.367 104.639 87.939 104.639 88.6462C104.639 89.3535 104.072 89.9254 103.371 89.9254H92.7994V114.15H103.371C104.072 114.15 104.639 114.722 104.639 115.429C104.639 116.137 104.072 116.709 103.371 116.709H91.5306V116.721ZM86.4676 108.966H90.2618V93.0066H86.4676V108.966ZM39.4427 73.7017C38.6741 73.7017 38.058 73.9846 37.875 74.4213L37.7713 74.6734L37.8872 74.9194C37.9787 75.1162 38.2349 75.3376 38.4545 75.4729C42.023 77.7177 44.9632 79.8456 47.4337 81.9735C49.8981 84.0952 52.0758 86.506 54.1864 88.843C55.1746 89.9377 56.1811 91.0509 57.1998 92.121C58.676 93.6646 60.6585 95.6511 62.9521 97.3239C66.4962 99.9192 70.5283 102.09 74.9386 103.788C78.8792 105.3 81.8133 105.971 83.2102 106.235L83.93 106.371V95.3497L83.5152 95.2083C81.3131 94.4703 80.0992 92.533 79.3794 91.137C78.8914 90.1899 78.5071 89.1997 78.1655 88.3203C77.0309 85.399 75.3168 80.9772 78.5864 77.9329C78.9585 77.5885 79.3794 77.2872 79.782 76.992C80.7092 76.3216 81.5083 75.7497 81.5144 74.9809C81.5144 74.7288 81.4107 74.5135 81.185 74.3167C80.8434 74.0092 80.3066 73.8247 79.7942 73.8247C79.7088 73.8247 79.6234 73.8247 79.538 73.8432C77.708 74.0953 75.4876 75.3253 74.4933 76.6476C73.438 78.0436 72.7365 80.2761 72.0655 82.4286C71.1932 85.2084 70.3758 87.8344 68.6617 88.9291C67.9724 89.3719 67.2282 89.5872 66.3986 89.5872C63.2937 89.5872 59.5666 86.5368 56.2726 83.8431C55.5833 83.2773 54.9367 82.7484 54.3023 82.2502C47.8851 77.2072 42.3036 74.286 40.3882 73.8186C40.0527 73.7386 39.7355 73.6956 39.4366 73.6956L39.4427 73.7017ZM42.7245 71.949C45.4451 73.099 50.3251 75.885 55.87 80.2392C56.5227 80.7496 57.1815 81.2908 57.8769 81.8566C61.2136 84.5872 64.3734 87.0411 66.3254 87.0411C66.7036 87.0411 67.033 86.9488 67.3136 86.7766C68.1737 86.2231 68.8569 84.2244 69.656 81.6721C70.4002 79.3044 71.1627 76.8567 72.4864 75.1039C73.4258 73.8616 75.0728 72.687 76.8845 71.9551L76.6588 70.7682H42.9624L42.7245 71.949ZM20.0203 65.2885C20.185 65.596 20.3802 65.9158 20.5876 66.2356C21.3867 67.441 22.0272 67.9576 22.2041 68.0929L22.3627 68.2098H99.9852L100.162 68.0437C100.766 67.4718 101.571 66.2233 102.053 65.2762L102.511 64.3783H94.5257C93.8242 64.3783 93.2569 63.8064 93.2569 63.0991C93.2569 62.3919 93.8242 61.8199 94.5257 61.8199H98.3748L98.3443 61.1742C97.3439 41.1252 80.9471 25.4181 61.0184 25.4181C41.0897 25.4181 24.6929 41.1252 23.6925 61.1742L23.662 61.8199H70.7479C71.4494 61.8199 72.0167 62.3919 72.0167 63.0991C72.0167 63.8064 71.4494 64.3783 70.7479 64.3783H19.5323L20.0203 65.2824V65.2885Z" fill="white"/>
<path d="M98.5454 111.014C97.6121 111.014 96.8557 110.251 96.8557 109.31C96.8557 108.369 97.6121 107.606 98.5454 107.606C99.4787 107.606 100.235 108.369 100.235 109.31C100.235 110.251 99.4787 111.014 98.5454 111.014Z" fill="white"/>
</svg>
