<svg width="122" height="123" viewBox="0 0 122 123" fill="none" xmlns="http://www.w3.org/2000/svg">
<path d="M11.9498 99.5809C11.108 99.5809 10.4248 98.8921 10.4248 98.0434V76.5245C10.4248 75.6758 11.0958 75.0116 11.9498 75.0116H20.4776C21.3316 75.0116 22.0026 75.6758 22.0026 76.5245V83.6093H38.7105L42.3766 78.0497L42.1143 77.6992C40.9187 76.1063 40.2843 74.2982 40.2843 72.4655C40.2843 70.6328 40.9004 68.7325 42.0106 67.238L44.6275 63.7202L31.8358 56.2726C29.1579 54.7105 27.4926 51.8015 27.4926 48.6773C27.4926 46.8692 28.0355 45.1288 29.0664 43.6466L40.2721 27.4967C42.0228 24.9752 45.1094 23.407 48.3302 23.407C49.9955 23.407 51.5998 23.8252 52.9784 24.6247L110.813 57.97C111.301 58.2529 111.593 58.7756 111.581 59.3476C111.563 59.9134 111.24 60.4238 110.739 60.6821L102.639 64.7719L102.736 65.2331C102.956 66.2848 103.053 67.1396 103.053 67.9207C103.053 75.8849 96.63 82.367 88.7366 82.367C88.6024 82.367 88.4743 82.3486 88.3462 82.3301C88.2364 82.3178 88.1205 82.2994 88.0107 82.2932L87.602 82.2625L85.8391 85.8233C85.65 86.1985 85.3145 86.4875 84.9119 86.6105C84.7716 86.6536 84.6252 86.672 84.4727 86.672C84.2043 86.672 83.942 86.5982 83.7102 86.4691L65.0381 75.5959L62.3846 80.0546C60.7498 82.8098 57.7547 84.5195 54.5766 84.5195C53.93 84.5195 53.2773 84.3904 52.6612 84.2551L52.2525 84.169L48.5254 89.8085C46.2623 93.2341 42.4742 95.282 38.3872 95.282H22.0087V98.0434C22.0087 98.8921 21.3255 99.5809 20.4837 99.5809H11.9559H11.9498ZM13.4748 96.512H18.9587V78.0805H13.4748V96.512ZM22.0026 92.2193H38.3811C41.4433 92.2193 44.2859 90.688 45.9878 88.1173L49.4099 82.9451L44.7007 80.0977L41.425 85.0546C40.7479 86.0816 39.6133 86.6966 38.3811 86.6966H22.0026V92.2255V92.2193ZM31.5552 45.4609C30.8903 46.4203 30.5365 47.5519 30.5365 48.7265C30.5365 50.7499 31.6162 52.6379 33.3547 53.6527L83.82 83.0066L90.9814 68.5541L37.2282 37.2937L31.5552 45.467V45.4609ZM44.4445 69.1138C43.7247 70.0855 43.3282 71.2847 43.3282 72.4963C43.3282 74.4643 44.3713 76.3154 46.0427 77.3302L51.4534 80.602C52.344 81.1432 53.3871 81.4261 54.4729 81.4261C56.6689 81.4261 58.7002 80.3068 59.7738 78.5048L62.3968 74.0953L47.2871 65.3069L44.4506 69.1199L44.4445 69.1138ZM94.1168 69.0953L89.0477 79.3289L90.1884 79.1752C95.776 78.431 99.9911 73.6094 99.9911 67.9576C99.9911 67.7608 99.9667 67.5578 99.9423 67.3549C99.9301 67.2749 99.924 67.1888 99.9179 67.1089L99.8386 66.211L94.1229 69.0953H94.1168ZM48.1777 26.4881C46.0244 26.4881 43.9992 27.5521 42.7609 29.3356L38.985 34.7722L93.0432 66.211L106.829 59.2615L51.4656 27.3676C50.4713 26.7956 49.3367 26.4881 48.1838 26.4881H48.1777Z" fill="white"/>
<path d="M80.1905 73.7815C79.3487 73.7815 78.6655 73.0927 78.6655 72.244C78.6655 71.3953 79.3487 70.7065 80.1905 70.7065C81.0323 70.7065 81.7155 71.3953 81.7155 72.244C81.7155 73.0927 81.0323 73.7815 80.1905 73.7815Z" fill="white"/>
</svg>
