<svg width="122" height="123" viewBox="0 0 122 123" fill="none" xmlns="http://www.w3.org/2000/svg">
<path d="M22.6369 101.985C20.3494 101.985 18.8427 101.807 17.8301 100.805C16.5613 99.5501 16.5613 97.4714 16.5613 94.0213C16.5613 91.3091 16.5613 88.6031 16.5613 85.8971C16.5674 79.5257 16.5735 72.9391 16.543 66.4631V66.2479C16.5186 61.6354 16.5003 56.8814 19.2209 52.312C18.1778 52.3058 17.3238 52.2997 16.4698 52.3366C15.2193 52.3919 14.2372 52.0783 13.554 51.4079C12.5719 50.4485 12.456 49.0402 12.4621 47.927V47.5641C12.4621 45.8729 12.4743 42.718 16.3112 42.6503L17.1103 42.638C18.9708 42.6011 20.8923 42.5642 22.7955 42.6565C23.5458 42.6872 23.7715 42.6073 24.0643 41.7278C25.205 38.2838 26.4738 34.846 27.6755 31.6418C30.2497 24.7969 35.6787 21.0208 42.9621 21.0208C55.034 21.0208 67.0998 21.0208 79.1717 21.0208C86.266 21.0208 91.5974 24.6739 94.1777 31.3097C95.6234 35.0243 96.8373 38.4068 97.8865 41.6479C98.1793 42.5581 98.3989 42.7118 99.3261 42.6565C101.278 42.5458 103.334 42.5458 105.609 42.6565C109.269 42.8348 109.531 44.9197 109.513 48.0931C109.507 49.0648 109.379 50.4731 108.372 51.4264C107.653 52.109 106.658 52.4104 105.341 52.3366C104.548 52.2935 103.736 52.2935 102.821 52.3058C105.542 56.9921 105.487 61.906 105.438 66.6784C105.432 67.3118 105.426 67.9453 105.426 68.5787C105.426 73.7939 105.426 79.0091 105.426 84.2305V94.9007C105.426 97.7728 105.371 99.587 104.224 100.743C103.072 101.906 101.223 101.961 98.3318 101.955H98.0573C97.8987 101.955 97.7401 101.955 97.5754 101.955C94.1777 101.906 92.7625 100.466 92.7015 96.9917C92.6771 95.5711 92.6832 94.1627 92.6893 92.6744C92.6893 92.4038 92.6893 92.1332 92.6893 91.8565H29.2859C29.2859 92.1271 29.2859 92.4038 29.2859 92.6744C29.292 94.2058 29.2981 95.6572 29.2676 97.1332C29.2005 100.454 27.7792 101.893 24.5279 101.955C23.8447 101.967 23.2103 101.979 22.6308 101.979L22.6369 101.985ZM18.1534 49.8458C18.6048 49.8458 19.0806 49.8458 19.5808 49.852C20.1786 49.852 20.8252 49.8643 21.5572 49.8643C22.0269 49.8643 22.4539 50.1349 22.6552 50.5592C22.8565 50.9836 22.8016 51.494 22.5088 51.863C18.9464 56.3525 18.9647 61.1557 18.9891 66.2355V66.4508C19.0196 72.9329 19.0135 79.5257 19.0074 85.8971C19.0074 88.6031 19.0074 91.3153 19.0074 94.0213C19.0074 96.4321 19.0074 98.5169 19.5442 99.0458C20.081 99.5747 22.1245 99.5378 24.4913 99.4948C26.4433 99.4579 26.7971 99.1012 26.8337 97.084C26.8642 95.6326 26.8581 94.2058 26.852 92.6867C26.852 92.0102 26.8459 91.3214 26.8459 90.6264C26.8459 89.9315 27.3949 89.3965 28.0659 89.3965H93.9459C94.6169 89.3965 95.1659 89.95 95.1659 90.6264C95.1659 91.303 95.1659 92.0102 95.1659 92.6867C95.1598 94.1627 95.1537 95.5526 95.1781 96.9487C95.2147 99.1073 95.5624 99.464 97.6425 99.4948C97.7889 99.4948 97.9353 99.4948 98.0817 99.4948H98.3684C100.375 99.4948 102.071 99.464 102.529 99.0027C102.98 98.5477 103.017 96.8749 103.017 94.9007V84.2305C103.011 79.0153 103.011 73.8001 103.011 68.5787C103.011 67.9391 103.017 67.2934 103.023 66.6476C103.078 61.3955 103.133 56.4325 99.5945 51.8446C99.3078 51.4756 99.259 50.9713 99.4603 50.5469C99.6677 50.1226 100.089 49.8581 100.558 49.8581C101.211 49.8581 101.803 49.852 102.358 49.8458C103.505 49.8335 104.493 49.8212 105.493 49.8766C105.908 49.9012 106.463 49.8766 106.719 49.6306C106.957 49.403 107.085 48.8618 107.091 48.0685C107.11 45.1841 107.049 45.1841 105.512 45.1103C103.322 45.0058 101.351 45.0058 99.4847 45.1103C97.4595 45.221 96.2273 44.3662 95.5929 42.4105C94.5559 39.2186 93.3603 35.8792 91.9268 32.2076C89.7064 26.5004 85.3022 23.4808 79.19 23.4808C67.1181 23.4808 55.0523 23.4808 42.9804 23.4808C36.6913 23.4808 32.1895 26.605 29.9691 32.509C28.7735 35.6885 27.5169 39.0956 26.3884 42.5027C25.7723 44.3723 24.5889 45.2026 22.6918 45.1103C20.8679 45.0242 18.9891 45.0611 17.1713 45.0919L16.3661 45.1042C15.0668 45.1287 14.9204 45.3809 14.9143 47.5641V47.9393C14.9082 48.8311 15.0241 49.403 15.262 49.6367C15.4938 49.8643 15.994 49.8889 16.3783 49.8766C16.9578 49.852 17.5373 49.8458 18.1534 49.8458ZM48.4826 84.5564C47.1528 84.5564 46.1707 84.212 45.4753 83.5109C44.4932 82.5207 44.3712 81.0694 44.3834 79.7779C44.3956 78.4618 44.4078 76.8197 45.5119 75.7312C46.2073 75.0424 47.1711 74.7287 48.507 74.7349C51.4411 74.7718 54.4301 74.7656 57.3154 74.7533C59.7798 74.7533 62.2442 74.7472 64.7086 74.741C67.5512 74.7349 70.4853 74.7287 73.3767 74.7595C76.9818 74.7964 77.5918 76.2908 77.5979 79.6302C77.5979 82.9389 76.9757 84.5134 73.4011 84.5257C69.6496 84.538 65.892 84.538 62.1405 84.538C57.6814 84.538 53.0637 84.538 48.5253 84.5626H48.4765L48.4826 84.5564ZM48.4155 77.1949C47.9946 77.1949 47.4639 77.2502 47.2199 77.4901C46.8417 77.8652 46.8356 78.9845 46.8234 79.8024C46.8234 80.479 46.8478 81.4199 47.2016 81.7766C47.47 82.0472 48.0495 82.0903 48.5131 82.1026C53.0576 82.078 57.6753 82.078 62.1405 82.078C65.892 82.078 69.6435 82.078 73.3889 82.0657C74.5683 82.0616 75.1559 81.2498 75.1518 79.6302C75.1478 78.0107 74.5459 77.2071 73.3462 77.2195C70.467 77.1887 67.539 77.1949 64.7086 77.201C62.2442 77.201 59.7798 77.201 57.3154 77.2133C54.4179 77.2195 51.4228 77.2318 48.4704 77.1949C48.4521 77.1949 48.4277 77.1949 48.4094 77.1949H48.4155ZM93.708 74.575H93.6714L85.7292 74.5381C82.9659 74.5257 80.4344 72.8714 79.2754 70.3315C79.0253 69.7903 79.2022 69.1445 79.6963 68.8063L91.8597 60.3992C92.061 60.2578 92.305 60.184 92.549 60.184H93.7446C97.6791 60.2086 100.869 63.4496 100.845 67.4225C100.827 71.3769 97.6303 74.5811 93.708 74.5811V74.575ZM82.0143 70.1777C82.8866 71.3462 84.2652 72.0658 85.7414 72.0719L93.6836 72.1088H93.708C96.2883 72.1088 98.3928 69.9994 98.405 67.3979C98.4172 64.7841 96.3188 62.6501 93.7324 62.6378H92.9272L82.0143 70.1716V70.1777ZM28.3343 74.575C24.412 74.575 21.2156 71.3708 21.1973 67.4164C21.179 63.4496 24.3632 60.2024 28.2977 60.184H29.4872C29.7068 60.184 29.9752 60.2516 30.1826 60.3931L42.346 68.8001C42.834 69.1384 43.0109 69.7841 42.7669 70.3253C41.6079 72.8653 39.0764 74.5196 36.3131 74.5319L28.3648 74.5688H28.3282L28.3343 74.575ZM29.1212 62.6378H28.3099C25.7174 62.6562 23.6251 64.7903 23.6373 67.3979C23.6495 69.9994 25.754 72.1088 28.3343 72.1088H28.3587L36.3009 72.0719C37.7771 72.0658 39.1557 71.3462 40.028 70.1777L29.1151 62.6378H29.1212ZM83.1001 50.7991H38.2956C35.1053 50.7991 32.4457 49.6059 31.0061 47.5211C29.8288 45.8237 29.6031 43.745 30.3595 41.6725L33.6535 32.6381C34.8613 29.3294 39.2228 26.8325 43.8039 26.8325H77.5918C82.1729 26.8325 86.5344 29.3294 87.7422 32.6381L91.0362 41.6725C91.7926 43.745 91.5608 45.8237 90.3896 47.5211C88.9439 49.6059 86.2904 50.7991 83.1001 50.7991ZM32.6592 42.5212C32.1773 43.8373 32.3054 45.0796 33.0191 46.1128C34.0012 47.5273 35.9288 48.3391 38.3078 48.3391H83.1001C85.4791 48.3391 87.4067 47.5273 88.3888 46.1128C89.1025 45.0796 89.2306 43.8373 88.7487 42.5212L85.4547 33.4868C84.6129 31.1744 81.0871 29.2925 77.5979 29.2925H43.81C40.3208 29.2925 36.795 31.1744 35.9532 33.4868L32.6592 42.5212Z" fill="white"/>
</svg>
