<svg width="122" height="123" viewBox="0 0 122 123" fill="none" xmlns="http://www.w3.org/2000/svg">
<path d="M99.8999 34.3909H67.1185V30.5471C67.1185 28.0195 65.0811 25.9592 62.5679 25.9592H59.4264C56.9193 25.9592 54.8758 28.0133 54.8758 30.5471V34.3909H22.0944C17.7878 34.3909 14.2803 37.9271 14.2803 42.269V89.1628C14.2803 93.5047 17.7878 97.0409 22.0944 97.0409H99.8938C104.2 97.0409 107.708 93.5047 107.708 89.1628V42.269C107.708 37.9271 104.2 34.3909 99.8938 34.3909H99.8999ZM57.3219 30.5471C57.3219 29.3725 58.2674 28.4192 59.4325 28.4192H62.574C63.7391 28.4192 64.6846 29.3725 64.6846 30.5471V40.7008C64.6846 41.8754 63.7391 42.8287 62.574 42.8287H59.4325C58.2674 42.8287 57.3219 41.8754 57.3219 40.7008V30.5471ZM105.274 89.1689C105.274 92.1578 102.864 94.5871 99.8999 94.5871H22.1005C19.1359 94.5871 16.7264 92.1578 16.7264 89.1689V42.2752C16.7264 39.2863 19.1359 36.857 22.1005 36.857H54.8819V40.7008C54.8819 43.2284 56.9193 45.2887 59.4325 45.2887H62.574C65.0811 45.2887 67.1246 43.2346 67.1246 40.7008V36.857H99.906C102.871 36.857 105.28 39.2863 105.28 42.2752V89.1689H105.274Z" fill="white"/>
<path d="M46.726 69.6857C49.6052 67.8222 51.5206 64.575 51.5206 60.8789C51.5206 55.1102 46.8663 50.4177 41.1445 50.4177C35.4227 50.4177 30.7684 55.1102 30.7684 60.8789C30.7684 64.575 32.6838 67.8222 35.563 69.6857C30.5549 71.1371 26.1934 74.5073 23.5338 79.1813C23.1983 79.7717 23.3996 80.522 23.9852 80.8602C24.5708 81.1985 25.315 80.9955 25.6505 80.4051C28.8286 74.8148 34.7639 71.3462 41.1445 71.3462C47.5251 71.3462 53.4604 74.8148 56.6385 80.4051C56.8642 80.7987 57.2729 81.0263 57.6999 81.0263C57.9073 81.0263 58.1147 80.9771 58.3038 80.8664C58.8894 80.5281 59.0907 79.7778 58.7552 79.1874C56.0956 74.5134 51.7402 71.1432 46.726 69.6918V69.6857ZM33.2023 60.8789C33.2023 56.4632 36.7647 52.8777 41.1384 52.8777C45.5121 52.8777 49.0745 56.4693 49.0745 60.8789C49.0745 65.2884 45.5121 68.88 41.1384 68.88C36.7647 68.88 33.2023 65.2884 33.2023 60.8789Z" fill="white"/>
<path d="M67.2464 52.8716H82.3256C82.9966 52.8716 83.5456 52.3181 83.5456 51.6416C83.5456 50.9651 82.9966 50.4116 82.3256 50.4116H67.2464C66.5754 50.4116 66.0264 50.9651 66.0264 51.6416C66.0264 52.3181 66.5754 52.8716 67.2464 52.8716Z" fill="white"/>
<path d="M97.4048 59.7964H67.2464C66.5754 59.7964 66.0264 60.3499 66.0264 61.0264C66.0264 61.7029 66.5754 62.2564 67.2464 62.2564H97.4048C98.0758 62.2564 98.6248 61.7029 98.6248 61.0264C98.6248 60.3499 98.0758 59.7964 97.4048 59.7964Z" fill="white"/>
<path d="M97.4048 69.1753H67.2464C66.5754 69.1753 66.0264 69.7288 66.0264 70.4053C66.0264 71.0818 66.5754 71.6353 67.2464 71.6353H97.4048C98.0758 71.6353 98.6248 71.0818 98.6248 70.4053C98.6248 69.7288 98.0758 69.1753 97.4048 69.1753Z" fill="white"/>
<path d="M97.4048 78.5601H67.2464C66.5754 78.5601 66.0264 79.1136 66.0264 79.7901C66.0264 80.4666 66.5754 81.0201 67.2464 81.0201H97.4048C98.0758 81.0201 98.6248 80.4666 98.6248 79.7901C98.6248 79.1136 98.0758 78.5601 97.4048 78.5601Z" fill="white"/>
</svg>
