<svg width="154" height="154" viewBox="0 0 154 154" fill="none" xmlns="http://www.w3.org/2000/svg">
<path d="M60.3988 38.1766H72.38V76.5072C72.4425 76.8641 72.6289 77.1875 72.9064 77.4206C73.1838 77.6536 73.5346 77.7814 73.8969 77.7814C74.2593 77.7814 74.61 77.6536 74.8875 77.4206C75.1649 77.1875 75.3513 76.8641 75.4138 76.5072V36.6597C75.4138 36.2512 75.2516 35.8595 74.9627 35.5707C74.6739 35.2819 74.2822 35.1197 73.8738 35.1197H64.064L79.9568 19.25L95.8496 35.1505H86.0244C85.616 35.1505 85.2243 35.3127 84.9355 35.6015C84.6467 35.8903 84.4844 36.282 84.4844 36.6905V74.9672C84.5469 75.3241 84.7333 75.6475 85.0108 75.8806C85.2882 76.1137 85.639 76.2414 86.0013 76.2414C86.3637 76.2414 86.7144 76.1137 86.9919 75.8806C87.2693 75.6475 87.4557 75.3241 87.5182 74.9672V38.1766H99.4917C99.7914 38.1733 100.084 38.0827 100.332 37.9158C100.581 37.749 100.776 37.5131 100.893 37.2372C101.005 36.9589 101.033 36.6541 100.975 36.36C100.916 36.0659 100.772 35.7954 100.562 35.5817L81.004 16.0314C80.7168 15.7538 80.3331 15.5986 79.9337 15.5986C79.5343 15.5986 79.1506 15.7538 78.8634 16.0314L59.3285 35.5817C59.1254 35.7974 58.9888 36.0671 58.9351 36.3585C58.8815 36.65 58.913 36.9507 59.026 37.2246C59.139 37.4985 59.3286 37.734 59.5721 37.9029C59.8156 38.0717 60.1027 38.1668 60.3988 38.1766Z" fill="white"/>
<path d="M74.2588 86.5018C74.5661 86.2475 74.7627 85.8838 74.8072 85.4874C74.8518 85.091 74.7407 84.6928 74.4975 84.3766C71.3186 80.3909 67.4221 77.0351 63.0091 74.4821C56.98 70.9709 49.4956 68.6378 40.4712 67.76V56.7567C40.468 56.4571 40.3774 56.1649 40.2105 55.916C40.0437 55.667 39.8078 55.4722 39.5318 55.3553C39.2546 55.245 38.9513 55.2175 38.6588 55.2763C38.3663 55.3351 38.0971 55.4775 37.884 55.6864L30.0993 63.4711L25.6333 67.9448L18.326 75.2444C18.0485 75.5316 17.8933 75.9154 17.8933 76.3147C17.8933 76.7141 18.0485 77.0979 18.326 77.385L37.884 96.9507C38.1005 97.1518 38.3703 97.2864 38.6611 97.3383C38.952 97.3903 39.2516 97.3575 39.5244 97.2439C39.7971 97.1303 40.0314 96.9406 40.1993 96.6974C40.3672 96.4543 40.4616 96.168 40.4712 95.8727V82.9829C45.0264 83.4526 49.4699 84.6865 53.6151 86.6327C56.8265 88.1948 59.6891 90.3896 62.0312 93.0853C63.88 95.2746 65.374 97.7404 66.4587 100.393C66.6551 100.697 66.9525 100.922 67.2984 101.029C67.6444 101.136 68.0169 101.117 68.3506 100.976C68.6842 100.836 68.9577 100.582 69.1228 100.26C69.288 99.9376 69.3344 99.5675 69.2538 99.2145C68.045 96.2709 66.3821 93.535 64.3258 91.1064C61.7212 88.11 58.5393 85.6693 54.9703 83.93C49.9832 81.563 44.599 80.1452 39.0929 79.7489C38.8812 79.733 38.6685 79.761 38.4681 79.8313C38.2677 79.9015 38.084 80.0124 37.9285 80.157C37.7731 80.3016 37.6492 80.4769 37.5647 80.6716C37.4802 80.8664 37.4368 81.0766 37.4374 81.2889V92.2537L21.56 76.3147L27.7739 70.07L32.2476 65.5963L37.4374 60.4065V69.0998C37.4359 69.4853 37.579 69.8574 37.8384 70.1426C38.0979 70.4277 38.4549 70.6051 38.8388 70.6398C48.1404 71.3636 55.6171 73.7198 61.4768 77.1309C65.5586 79.4868 69.1712 82.5747 72.1336 86.24C72.3847 86.5508 72.7467 86.7519 73.1433 86.8007C73.5398 86.8496 73.9398 86.7424 74.2588 86.5018Z" fill="white"/>
<path d="M116.116 55.6863C115.9 55.4856 115.631 55.3511 115.341 55.2988C115.051 55.2465 114.751 55.2787 114.479 55.3914C114.207 55.5041 113.972 55.6927 113.804 55.9347C113.635 56.1767 113.54 56.4619 113.529 56.7566V68.1372C105.575 69.3692 98.8449 71.9256 93.4395 75.483C88.5231 78.7198 84.3052 82.9089 81.0348 87.803C77.2869 93.5054 74.6726 99.8765 73.3348 106.568C72.6527 109.728 72.2737 112.946 72.2029 116.177V136.967C72.2654 137.324 72.4518 137.648 72.7292 137.881C73.0067 138.114 73.3574 138.242 73.7198 138.242C74.0821 138.242 74.4329 138.114 74.7103 137.881C74.9878 137.648 75.1742 137.324 75.2367 136.967V116.177C75.3094 113.155 75.6677 110.146 76.307 107.192C77.5725 100.873 80.0486 94.8593 83.5989 89.4816C86.6425 84.9315 90.5704 81.0402 95.1489 78.0394C100.446 74.559 107.13 72.0103 115.292 70.9246C115.659 70.8689 115.994 70.6824 116.235 70.3994C116.475 70.1164 116.605 69.756 116.601 69.3846V60.4218L132.44 76.3146L131.601 77.1616L129.868 78.8864L116.539 92.2151V81.6199C116.538 81.4006 116.49 81.1842 116.399 80.985C116.307 80.7858 116.174 80.6085 116.008 80.4649C115.84 80.3246 115.644 80.2218 115.433 80.1634C115.221 80.1049 115 80.0922 114.784 80.1261C109.944 80.8546 105.287 82.4983 101.062 84.9694C96.5294 87.7423 92.7584 91.6006 90.09 96.196C86.6567 102.17 84.6881 108.872 84.3458 115.754V116.108V116.147V136.898C84.4083 137.255 84.5947 137.579 84.8721 137.812C85.1496 138.045 85.5003 138.172 85.8627 138.172C86.225 138.172 86.5758 138.045 86.8532 137.812C87.1307 137.579 87.3171 137.255 87.3796 136.898V116.408C87.3796 116.131 87.3796 115.739 87.4335 115.23C87.4335 115.23 87.4335 115.184 87.4335 115.161C87.5875 112.535 88.5423 104.658 92.7157 97.7514C95.1523 93.5835 98.5936 90.092 102.726 87.5951C106.098 85.6288 109.78 84.2488 113.613 83.5141V95.8341C113.623 96.1294 113.718 96.4157 113.885 96.6588C114.053 96.9019 114.288 97.0916 114.56 97.2052C114.833 97.3189 115.133 97.3517 115.424 97.2997C115.714 97.2477 115.984 97.1132 116.201 96.9121L132.117 80.9962L133.841 79.2637L135.759 77.3464C136.036 77.0592 136.191 76.6755 136.191 76.2761C136.191 75.8767 136.036 75.4929 135.759 75.2058L116.116 55.6863Z" fill="white"/>
</svg>
