<svg width="146" height="146" viewBox="0 0 146 146" fill="none" xmlns="http://www.w3.org/2000/svg">
<path d="M46.8879 79.3437H38.1279C37.7077 79.3437 37.3048 79.5106 37.0077 79.8076C36.7107 80.1047 36.5438 80.5076 36.5438 80.9278C36.5438 81.3479 36.7107 81.7508 37.0077 82.0479C37.3048 82.345 37.7077 82.5119 38.1279 82.5119H46.2893C48.258 95.099 49.3095 107.813 49.4356 120.552H28.616V46.0922H25.4478V122.136C25.4477 122.553 25.6116 122.952 25.904 123.249C26.1963 123.545 26.5936 123.715 27.01 123.72H51.0051C51.4175 123.717 51.8119 123.55 52.1029 123.258C52.3939 122.966 52.5581 122.571 52.56 122.158C52.7425 103.857 49.932 85.337 49.2969 81.4242C57.5532 71.9342 61.4879 57.6116 63.3494 46.0557H60.1009C58.2467 57.1371 54.5018 70.6129 46.8879 79.3437Z" fill="white"/>
<path d="M41.296 76.1682C41.6096 76.1679 41.9165 76.0766 42.1793 75.9054C42.5236 75.6697 42.7622 75.3087 42.8441 74.8995C42.9259 74.4903 42.8445 74.0654 42.6173 73.7154C39.7557 69.4303 39.6973 61.9843 39.6973 61.9186C39.6973 61.4984 39.5304 61.0955 39.2333 60.7984C38.9362 60.5014 38.5333 60.3345 38.1132 60.3345C37.693 60.3345 37.2901 60.5014 36.993 60.7984C36.6959 61.0955 36.5291 61.4984 36.5291 61.9186C36.5291 62.2617 36.5291 70.3793 39.9674 75.482C40.1152 75.6969 40.3138 75.872 40.5456 75.9917C40.7774 76.1114 41.0351 76.172 41.296 76.1682Z" fill="white"/>
<path d="M42.4203 86.14C42.2717 85.9901 42.0949 85.8711 41.9 85.79C41.7052 85.7088 41.4962 85.667 41.2852 85.667C41.0741 85.667 40.8651 85.7088 40.6703 85.79C40.4754 85.8711 40.2986 85.9901 40.15 86.14C40.004 86.286 36.5 89.8557 36.5 96.7688C36.5 97.1889 36.6669 97.5918 36.964 97.8889C37.261 98.186 37.664 98.3529 38.0841 98.3529C38.5042 98.3529 38.9072 98.186 39.2042 97.8889C39.5013 97.5918 39.6682 97.1889 39.6682 96.7688C39.6682 91.2427 42.2743 88.4833 42.3838 88.3665C42.6834 88.0758 42.8554 87.6781 42.8623 87.2607C42.8691 86.8434 42.7102 86.4403 42.4203 86.14Z" fill="white"/>
<path d="M117.384 120.552H96.5643C96.6893 107.805 97.7409 95.0843 99.7106 82.4899H107.872C108.292 82.4899 108.695 82.323 108.992 82.0259C109.289 81.7288 109.456 81.3259 109.456 80.9058C109.456 80.4857 109.289 80.0827 108.992 79.7857C108.695 79.4886 108.292 79.3217 107.872 79.3217H99.112C91.4981 70.5617 87.7532 57.1151 85.899 46.0337H82.6213C84.4828 57.5896 88.4175 71.9049 96.6738 81.4022C96.0387 85.315 93.2282 103.835 93.4107 122.136C93.4117 122.343 93.4535 122.547 93.5337 122.738C93.6139 122.928 93.731 123.101 93.8782 123.246C94.0254 123.392 94.1998 123.506 94.3914 123.584C94.583 123.661 94.7881 123.7 94.9948 123.698H118.99C119.41 123.698 119.813 123.531 120.11 123.234C120.407 122.937 120.574 122.534 120.574 122.114V46.0556H117.384V120.552Z" fill="white"/>
<path d="M103.821 75.9199C104.083 76.0911 104.39 76.1824 104.704 76.1827C104.966 76.1793 105.224 76.1109 105.453 75.9835C105.682 75.856 105.876 75.6737 106.018 75.4527C109.42 70.3427 109.456 62.2324 109.456 61.8893C109.456 61.4691 109.289 61.0662 108.992 60.7691C108.695 60.4721 108.292 60.3052 107.872 60.3052C107.452 60.3052 107.049 60.4721 106.752 60.7691C106.455 61.0662 106.288 61.4691 106.288 61.8893C106.288 61.955 106.244 69.401 103.368 73.6861C103.249 73.8619 103.167 74.0596 103.125 74.2676C103.084 74.4757 103.084 74.6899 103.126 74.8978C103.168 75.1057 103.252 75.3031 103.371 75.4786C103.49 75.6541 103.643 75.8041 103.821 75.9199Z" fill="white"/>
<path d="M103.594 86.14C103.3 86.439 103.136 86.8414 103.136 87.2605C103.136 87.6797 103.3 88.0821 103.594 88.3811C103.704 88.4979 106.31 91.2573 106.31 96.7834C106.31 97.2035 106.477 97.6064 106.774 97.9035C107.071 98.2006 107.474 98.3675 107.894 98.3675C108.314 98.3675 108.717 98.2006 109.014 97.9035C109.311 97.6064 109.478 97.2035 109.478 96.7834C109.478 89.8703 105.989 86.3006 105.828 86.1546C105.532 85.8593 105.132 85.6922 104.714 85.6895C104.296 85.6868 103.894 85.8486 103.594 86.14Z" fill="white"/>
<path d="M22.2795 22.2795V36.5948C22.2805 37.2144 22.4037 37.8277 22.6421 38.3995C22.8806 38.9714 23.2295 39.4906 23.6689 39.9273C24.1084 40.364 24.6297 40.7097 25.203 40.9446C25.7764 41.1795 26.3904 41.2989 27.0099 41.296H118.99C120.236 41.2941 121.431 40.7982 122.312 39.917C123.193 39.0357 123.689 37.8411 123.691 36.5948V22.2795H22.2795ZM120.552 36.5948C120.55 37.0008 120.388 37.3896 120.101 37.6767C119.814 37.9638 119.425 38.1259 119.019 38.1278H27.0099C26.604 38.1259 26.2151 37.9638 25.9281 37.6767C25.641 37.3896 25.4789 37.0008 25.4769 36.5948V25.4477H120.552V36.5948Z" fill="white"/>
</svg>
